<?xml version="1.0" encoding="utf-8"?>
<!-- Generator: Adobe Illustrator 22.1.0, SVG Export Plug-In . SVG Version: 6.00 Build 0)  -->
<svg version="1.1" id="Layer_1" xmlns="http://www.w3.org/2000/svg" xmlns:xlink="http://www.w3.org/1999/xlink" x="0px" y="0px"
	 viewBox="0 0 468 97" style="enable-background:new 0 0 468 97;" xml:space="preserve">
<style type="text/css">
	.st0{fill:#232528;}
	.st1{fill:#139AE8;}
	.st2{fill:#FFFFFF;}
</style>
<g>
	<path class="st0" d="M146.6,59.5h14.9C160.4,71.6,150.4,80,137.3,80c-14.9,0-25.8-10.4-25.8-24.7c0-14.3,10.9-24.6,25.8-24.6
		c13,0,23.1,8.3,24.2,20.5h-14.9c-0.8-4.3-4.4-7.1-9.3-7.1c-6.7,0-10.8,4.9-10.8,11.3s4.1,11.4,10.8,11.4
		C142.2,66.6,145.9,63.8,146.6,59.5z"/>
	<path class="st0" d="M219.3,55.2c0,14.4-10.7,25-25.7,25c-14.9,0-25.7-10.7-25.7-25c0-14.2,10.7-24.6,25.7-24.6
		C208.6,30.6,219.3,41,219.3,55.2z M204.5,55.3c0-6.2-4.3-11.1-10.6-11.1c-6.4,0-10.7,5-10.7,11.1c0,6.3,4.3,11.4,10.7,11.4
		C200.1,66.7,204.5,61.6,204.5,55.3z"/>
	<path class="st0" d="M276.1,51.9v27h-15.9V54.5c0-6.7-3.4-9.9-8.6-9.9c-3,0-6.1,1.7-8.8,4.7V79h-15.9V31.6h15.8v3.3
		c3.9-3.1,7.9-4.7,13-4.7C268,30.2,276.1,38.5,276.1,51.9z"/>
	<path class="st0" d="M314.6,78.9h-15l-20.5-47.2h16.7l11.3,27.3l11.3-27.3h16.7L314.6,78.9z"/>
	<path class="st0" d="M384.4,59.6l0.1,0.3h-33.7c1.2,4.3,4.6,7.6,10.6,7.6c3.3,0,5.8-1.2,7.2-3.4h15.7C382,74,373,80.1,361.4,80.1
		c-15.5,0-25.8-10.4-25.8-24.7c0-14.3,10-24.6,25-24.6c13.7,0,24.2,9.5,24.2,23.6C384.8,56,384.8,57.9,384.4,59.6z M350.6,50.6h19.2
		c-0.9-5.2-4.3-7.8-9.4-7.8C355.2,42.8,351.8,46,350.6,50.6z"/>
	<path class="st0" d="M392,15.4c0-5.2,4.1-9,9.3-9c5.1,0,9.3,3.9,9.3,9s-4.2,8.9-9.3,8.9C396.1,24.3,392,20.5,392,15.4z M409.3,78.9
		h-15.8V31.6h15.8V78.9z"/>
</g>
<circle class="st1" cx="56.1" cy="49.1" r="46.9"/>
<path class="st2" d="M43,56.7c-0.5-0.3-0.9-0.6-1.3-0.8c-1.2-0.8-2.5-1.6-3.7-2.4c-0.3-0.2-0.6-0.2-1-0.1c-1.7,0.7-3.8,0.2-4.8-1.3
	C31,50.6,31,48.6,32.2,47c1.1-1.5,3.1-1.9,4.8-1.2c0.2,0.1,0.5,0.1,0.6,0c1.7-1.1,3.4-2.1,5-3.2c0.1,0,0.1-0.1,0.2-0.2
	c-0.2-0.1-0.3-0.2-0.5-0.3c-2.7-1.7-5.3-3.4-8-5.1c-0.6-0.4-1.1-0.9-1.1-1.6c0-0.6,0.2-1.1,0.6-1.4c1-0.7,1.9-1.4,2.9-2.1
	c4.9-3.2,9.9-6.4,14.8-9.6c1.5-1.1,3.2-2,4.7-3c0.7-0.5,1.5-0.4,2.1,0c7.1,4.6,14.2,9.1,21.3,13.7c0.5,0.3,0.9,0.6,1.2,1
	c0.7,0.9,0.5,2-0.5,2.7c-3.5,2.3-7,4.6-10.5,6.9c-1.1,0.7-2,0.6-3-0.1c-3-2-6-4-9-5.9c-0.2-0.2-0.4-0.2-0.6,0
	c-6.1,4-12.1,7.8-18.2,11.8c-0.1,0-0.1,0.1-0.2,0.2c0.6,0.4,1.1,0.7,1.7,1.1c5.5,3.6,11,7.2,16.5,10.8c0.3,0.2,0.5,0.2,0.8,0
	c3.1-2,6.2-4,9.3-6.1c0.2-0.2,0.5-0.2,0.7-0.4c0.5-0.3,1.1-0.2,1.5,0.1c2.4,1.6,4.8,3.2,7.3,4.8c1.2,0.8,2.3,1.6,3.6,2.3
	c1.5,0.9,1.1,2.6,0.1,3.2c-1.5,1-2.8,1.9-4.3,2.9c-5.5,3.6-11.1,7.3-16.6,10.9c-0.4,0.2-0.8,0.5-1.1,0.7c-0.7,0.5-1.4,0.3-2-0.1
	c-1.4-0.9-2.7-1.8-4-2.7c-5.7-3.6-11.3-7.3-17.1-10.9C35,66,34.4,65.6,34,65.2c-0.8-0.9-0.6-2.2,0.4-2.8c1.7-1.1,3.5-2.3,5.3-3.4
	C40.6,58.2,41.8,57.5,43,56.7z M38.7,35.2c0.1,0.1,0.1,0.2,0.2,0.2c2.4,1.6,4.8,3.2,7.3,4.8c0.2,0.1,0.5,0.1,0.6-0.1
	c3.2-2,6.2-4,9.4-6.1c1-0.6,1.9-0.6,2.7,0c3.1,2,6.1,4,9.1,6c0.3,0.2,0.5,0.2,0.8,0c1.8-1.1,3.6-2.3,5.3-3.4
	c0.6-0.4,1.2-0.8,1.9-1.2c-0.2-0.2-0.3-0.2-0.5-0.3c-1.1-0.7-2.1-1.4-3.2-2.1c-4.8-3.2-9.7-6.4-14.6-9.5c-0.2-0.2-0.5-0.2-0.7,0
	c-4.7,3.1-9.5,6.1-14.1,9.1C41.6,33.3,40.2,34.2,38.7,35.2z M76,63.9c-0.2-0.2-0.2-0.2-0.3-0.2c-2.3-1.5-4.6-2.9-6.9-4.4
	c-0.2-0.1-0.5-0.1-0.6,0.1c-3.2,2-6.3,4-9.5,6.1c-1,0.6-2,0.6-3,0c-3-1.9-6.1-4-9.1-5.9c-0.3-0.2-0.5-0.2-0.7,0
	c-2.2,1.5-4.4,2.8-6.6,4.3c-0.1,0.1-0.2,0.2-0.2,0.2c0.2,0.1,0.2,0.2,0.4,0.3c5.9,3.7,11.8,7.5,17.6,11.4c0.3,0.2,0.5,0.2,0.7-0.1
	c4.8-3.2,9.7-6.3,14.5-9.5C73.6,65.4,74.8,64.7,76,63.9z"/>
</svg>
